<?xml version="1.0" encoding="utf-8"?><svg viewBox="0 0 16 17" xmlns="http://www.w3.org/2000/svg" xmlns:xlink="http://www.w3.org/1999/xlink"><style>:root>svg{display:none}:root>svg:target{display:block}</style><svg fill="none" viewBox="0 0 16 17" id="arrow-icon" xmlns="http://www.w3.org/2000/svg"><path d="M16 7.5H3.83l5.59-5.59L8 .5l-8 8 8 8 1.41-1.41L3.83 9.5H16v-2z" fill="#000"/></svg><svg fill="none" viewBox="0 0 16 16" id="email-icon" xmlns="http://www.w3.org/2000/svg"><g clip-path="url(#ba)" fill="#fff"><path d="M10.98 4.48H5.02A1.822 1.822 0 003.2 6.3v3.4a1.822 1.822 0 001.82 1.82h5.96A1.822 1.822 0 0012.8 9.7V6.3a1.822 1.822 0 00-1.82-1.82zm0 .64c.196.001.388.052.558.147l-2.506 1.88a1.73 1.73 0 01-2.063 0l-2.507-1.88c.171-.095.363-.146.558-.147h5.96zm1.18 4.58a1.18 1.18 0 01-1.18 1.18H5.02A1.18 1.18 0 013.84 9.7V6.3c.002-.204.057-.405.16-.58l2.586 1.938a2.37 2.37 0 002.83 0l2.586-1.939c.103.176.159.377.16.58l-.002 3.402z"/><path d="M8 .32A7.68 7.68 0 1015.68 8 7.69 7.69 0 008 .32zm0 14.72A7.04 7.04 0 1115.04 8 7.048 7.048 0 018 15.04z"/></g><defs><clipPath id="ba"><path fill="#fff" d="M0 0h16v16H0z"/></clipPath></defs></svg><svg fill="none" viewBox="0 0 14 14" id="phone-icon" xmlns="http://www.w3.org/2000/svg"><g clip-path="url(#ca)"><path d="M7 0C3.14 0 0 3.14 0 7s3.14 7 7 7 7-3.14 7-7-3.14-7-7-7zm0 13.344A6.351 6.351 0 01.656 7 6.35 6.35 0 017 .656 6.351 6.351 0 0113.344 7 6.351 6.351 0 017 13.344zm2.699-5.698a.918.918 0 00-1.297 0l-.323.324a.253.253 0 01-.306.045 4.304 4.304 0 01-1.788-1.788.253.253 0 01.045-.306l.324-.323a.918.918 0 000-1.297l-1.19-1.19a.918.918 0 00-1.296 0c-.044.045-.105.102-.169.163-.192.18-.409.386-.52.55-.44.644-.447 1.526-.02 2.552.359.86 1.013 1.791 1.844 2.621.83.83 1.76 1.485 2.62 1.843.506.211.976.316 1.4.316.438 0 .827-.112 1.154-.335.163-.111.368-.329.55-.52.06-.064.117-.125.161-.17a.918.918 0 000-1.295l-1.19-1.19zm.725 2.022a9.398 9.398 0 00-.175.182c-.143.151-.338.358-.443.43-.57.39-1.364.19-1.93-.045-.783-.327-1.638-.93-2.41-1.702-.77-.77-1.375-1.626-1.7-2.41-.236-.565-.436-1.358-.045-1.93.071-.104.278-.3.429-.442.067-.064.131-.124.182-.175a.261.261 0 01.368 0l1.19 1.19a.26.26 0 010 .367l-.324.324a.912.912 0 00-.161 1.078 4.957 4.957 0 002.06 2.06.912.912 0 001.078-.161l.324-.324a.261.261 0 01.367 0l1.19 1.19a.261.261 0 010 .368z" fill="#fff"/></g><defs><clipPath id="ca"><path fill="#fff" d="M0 0h14v14H0z"/></clipPath></defs></svg><svg fill="none" viewBox="0 0 14 14" id="time-icon" xmlns="http://www.w3.org/2000/svg"><g clip-path="url(#da)" fill="#fff"><path d="M7 7.273a.273.273 0 01-.193-.08L4.085 4.471a.274.274 0 11.386-.386l2.61 2.61 1.647-.441a.273.273 0 11.142.528l-1.8.482a.275.275 0 01-.07.01z"/><path d="M7 14a7 7 0 117-7 7.008 7.008 0 01-7 7zM7 .547A6.453 6.453 0 1013.453 7 6.46 6.46 0 007 .547z"/><path d="M7 2.177a.273.273 0 01-.273-.273v-.672a.273.273 0 01.546 0v.672A.273.273 0 017 2.177zm-2.548.683a.273.273 0 01-.237-.137l-.336-.582a.273.273 0 01.474-.273l.336.582a.273.273 0 01-.237.41zM2.586 4.725a.272.272 0 01-.137-.036l-.581-.336a.273.273 0 01.273-.474l.582.336a.273.273 0 01-.137.51zm-.682 2.548h-.672a.273.273 0 010-.546h.672a.273.273 0 010 .546zm.101 2.885a.273.273 0 01-.137-.51l.582-.337a.273.273 0 01.274.474l-.582.336a.271.271 0 01-.137.037zm2.111 2.112a.273.273 0 01-.237-.411l.336-.582a.273.273 0 11.474.273l-.336.582a.273.273 0 01-.237.137zM7 13.042a.273.273 0 01-.273-.274v-.672a.274.274 0 01.546 0v.672a.273.273 0 01-.273.274zm2.884-.772a.273.273 0 01-.237-.138l-.336-.582a.273.273 0 01.474-.273l.336.582a.273.273 0 01-.237.41zm2.111-2.112a.272.272 0 01-.136-.037l-.582-.336a.274.274 0 01.273-.474l.582.336a.273.273 0 01-.137.51zm.774-2.885h-.672a.274.274 0 010-.546h.672a.273.273 0 010 .546zm-1.356-2.548a.273.273 0 01-.137-.51l.582-.336a.274.274 0 11.274.474l-.582.336a.272.272 0 01-.137.036zM9.548 2.86a.273.273 0 01-.237-.41l.336-.582a.273.273 0 11.474.273l-.336.582a.273.273 0 01-.237.137z"/></g><defs><clipPath id="da"><path fill="#fff" d="M0 0h14v14H0z"/></clipPath></defs></svg></svg>