<?xml version="1.0" encoding="utf-8"?><svg viewBox="0 0 53 22" xmlns="http://www.w3.org/2000/svg" xmlns:xlink="http://www.w3.org/1999/xlink"><style>:root>svg{display:none}:root>svg:target{display:block}</style><svg fill="none" viewBox="0 0 16 17" id="arrow-icon" xmlns="http://www.w3.org/2000/svg"><path d="M16 7.5H3.83l5.59-5.59L8 .5l-8 8 8 8 1.41-1.41L3.83 9.5H16v-2z" fill="#000"/></svg><svg fill="none" viewBox="0 0 7 16" id="blog-arrow-icon" xmlns="http://www.w3.org/2000/svg"><path fill-rule="evenodd" clip-rule="evenodd" d="M-2.32.18a.615.615 0 01.872 0l7.384 7.385a.615.615 0 010 .87l-7.384 7.385a.616.616 0 01-.871-.872L4.63 8l-6.95-6.948a.615.615 0 010-.871z" fill="#23A6F0"/></svg><svg fill="none" viewBox="0 0 13 14" id="blog-time-icon" xmlns="http://www.w3.org/2000/svg"><path d="M6.5 13.667a6.08 6.08 0 01-6-6 6.08 6.08 0 016-6 6.08 6.08 0 016 6 6.08 6.08 0 01-6 6zM6.5 3a4.73 4.73 0 00-4.667 4.667 4.73 4.73 0 004.666 4.666 4.73 4.73 0 004.667-4.666A4.73 4.73 0 006.499 3zm3.333 5.333h-4v-4h1.333V7h2.667v1.333zm2.194-4.861l-2.006-2 .94-.945 2.006 2-.94.944v.001zm-11.056 0l-.944-.945 1.994-2 .944.945-1.993 2H.971z" fill="#23A6F0"/></svg><svg fill="none" viewBox="0 0 16 16" id="email-icon" xmlns="http://www.w3.org/2000/svg"><g clip-path="url(#da)" fill="#fff"><path d="M10.98 4.48H5.02A1.822 1.822 0 003.2 6.3v3.4a1.822 1.822 0 001.82 1.82h5.96A1.822 1.822 0 0012.8 9.7V6.3a1.822 1.822 0 00-1.82-1.82zm0 .64c.196.001.388.052.558.147l-2.506 1.88a1.73 1.73 0 01-2.063 0l-2.507-1.88c.171-.095.363-.146.558-.147h5.96zm1.18 4.58a1.18 1.18 0 01-1.18 1.18H5.02A1.18 1.18 0 013.84 9.7V6.3c.002-.204.057-.405.16-.58l2.586 1.938a2.37 2.37 0 002.83 0l2.586-1.939c.103.176.159.377.16.58l-.002 3.402z"/><path d="M8 .32A7.68 7.68 0 1015.68 8 7.69 7.69 0 008 .32zm0 14.72A7.04 7.04 0 1115.04 8 7.048 7.048 0 018 15.04z"/></g><defs><clipPath id="da"><path fill="#fff" d="M0 0h16v16H0z"/></clipPath></defs></svg><svg fill="none" viewBox="0 0 53 22" id="isart-logo-icon" xmlns="http://www.w3.org/2000/svg"><g clip-path="url(#ea)" fill-rule="evenodd" clip-rule="evenodd" fill="#fff"><path d="M.799 18.19c.01-.086.028-.173.048-.25l.057-.318c.01-.048.01-.105.03-.163.009-.048.019-.087.028-.125.01-.087.029-.174.039-.27.01-.086.038-.173.048-.24 0-.058.086-.549.106-.587 0-.077.115-.8.134-.838.01-.134.058-.288.068-.423.01-.154.067-.356.086-.51.01-.135.049-.308.068-.443a2.28 2.28 0 01.038-.221c.01-.058.03-.116.03-.193.028-.096.038-.279.067-.356.01-.144.048-.289.067-.433.01-.058.02-.096.029-.164.01-.048 0-.086.029-.106 0-.125.048-.25.048-.356.029-.163.067-.337.086-.5l.058-.337c.01-.038.02-.125.029-.164.01-.057.02-.077.02-.134.009-.087.028-.174.047-.26.01-.068.039-.173.039-.231a3.6 3.6 0 00.048-.289c.01-.192.087-.385.087-.587a1.25 1.25 0 00.048-.26c.019-.096.038-.202.048-.289l.087-.529c.01-.038.01-.048.01-.087 0-.019 0-.019.009-.038l.01-.02c0-.144.048-.317.067-.452 0-.057.048-.337.067-.365 0-.126.039-.174.039-.29.01-.047.048-.22.048-.278 0-.068.02-.096.029-.164l.077-.404c0-.125.019-.183.038-.299.01-.038.039-.22.048-.269.01-.087.03-.144.039-.24.01-.068.087-.607.115-.636 0-.086.01-.106.03-.183.009-.067.047-.404.076-.433 0-.106.02-.183.039-.289.019-.096.019-.163.048-.24l.106-.606c0-.078.086-.597.106-.626 0-.087.077-.549.106-.606 0-.068.048-.366.067-.405 0-.086.029-.24.048-.327 0-.058.125-.77.135-.808 0-.135.048-.299.067-.433 0-.077.01-.058.02-.116h20.933l-.097.635c-.019.096.01.039-.038.077l.01.048c-.03.145-.106.78-.155.847.01.087-.077.664-.115.722.01.096-.077.578-.106.693l-.058.327-.183 1.001c.01.068-.076.597-.105.645.01.144-.049.366-.077.52l-.087.51c-.01.02-.01.02-.01.038l-.01.03c.01.076-.009.26-.057.317.01.106-.038.308-.058.414-.019.115-.096.673-.134.722.01.086-.058.548-.106.606.01.048-.039.443-.087.5.02.125-.096.597-.116.77-.028.106-.038.222-.057.328l-.068.336c.01.048-.048.54-.105.616.019.077-.01.26-.058.318.01.087-.02.183-.03.28l-.105.528c.01.068-.02.29-.058.337.01.097-.038.433-.086.5.01.097-.02.203-.039.3-.01.066-.029.24-.067.288.01.058 0 .106-.01.163 0 .03-.01.058-.019.087-.01.058 0 .029-.029.067.01.068 0 .106-.01.164 0 .02-.01.058-.01.077-.009.058 0 .029-.028.068l-.058.452c-.038.115.039-.096-.01.029 0 0-.009.019-.009.01 0 0 0 .009-.01.009.01.058 0 .106-.01.164l-.038.144c.02.077-.048.481-.086.539.01.096-.058.548-.106.606.01.096-.039.453-.087.51.01.077-.01.25-.048.308.01.087-.02.193-.039.29l-.067.423c-.01.067-.048.336-.077.394.02.096-.02.221-.039.327-.019.097-.019.231-.067.299.01.086-.02.183-.029.27-.01.076-.019.192-.057.24.019.115-.049.356-.068.481-.02.125-.019.356-.087.443.01.096-.038.452-.086.51.01.086-.068.568-.106.616.01.115-.058.433-.077.568-.02.144.01.163-.135.173H2.935v-.01c-.577 0-1.155 0-1.723.01H.182c.01-.077.03-.164.049-.25l.077-.5c.01-.04.029-.213.048-.232 0-.058.067-.5.087-.53 0-.067.019-.163.028-.22.212-1.233.049-.164.299-1.79l.029.028zm4.388 1.675H8.44c1.011-4.976 2.358-12.906 3.254-18.113H8.469c.039 1.145-3.128 17.256-3.272 18.123l-.01-.01zM13.33 14.6c-.03.068-.039.193-.049.28-.01.086-.048.192-.048.288 0 .058-.029.135-.038.193-.01.067-.03.154-.039.23-.019.03-.067.328-.067.395-.029.039-.106.53-.106.616l-.106.54c-.019.144-.067.26-.048.442.029.289.28.471.587.423.231-.038.212-.057.366-.144.058-.096.289-.289.27-.443.038-.057.105-.5.115-.568.029-.125.106-.51.096-.606l.01-.029c0-.01.077-.23.058-.365l.028-.097c.01-.029.01-.067.02-.106.01-.067.038-.144.019-.211.01-.02.01 0 .019-.039l.02-.086c.009-.068.009-.068.009-.126.048-.057.067-.317.087-.413.019-.125.086-.395.077-.5l.067-.29c.02-.105.048-.211.038-.308.03-.038.03-.096.02-.154.086-.134-.048-.654-.097-.798-.048-.135-.298-.54-.375-.578-.02-.048-.23-.337-.28-.366-.018-.057 0-.01-.038-.057l-.27-.337-.066-.106c-.087-.106-.491-.635-.53-.645-.019-.067-.183-.26-.24-.327-.049-.058-.212-.289-.25-.308-.02-.039-.25-.366-.29-.385-.047-.116-.134-.222-.201-.337A1.568 1.568 0 0112 9.095c-.019-.048-.048-.144-.077-.183-.038-.221-.057-.327-.048-.568l.087-.615.144-.809c.029-.135.106-.481.087-.597.048-.067.086-.375.086-.471.039-.048.116-.54.106-.607.068-.106.097-.558.145-.721.019-.135.096-.434.086-.549.02-.02.01 0 .02-.039l.038-.163c.02-.068.048-.145.038-.212.03-.038.02-.02.039-.077.01-.029.02-.048.029-.077.02-.058.038-.096.038-.164.048-.048.106-.211.135-.288l.154-.289c.048-.029.096-.106.135-.154.048-.067.086-.096.144-.144.048-.039.318-.222.327-.241.087-.029.183-.096.28-.135.096-.038.183-.077.288-.106.222-.067.414-.096.655-.115.683-.02 1.386 0 2.079 0 .664 0 1.29.058 1.645.443.077.077.241.298.29.433.038.115.086.202.115.327a1.921 1.921 0 01.019.664c-.01.077-.029.173-.029.26-.01.087-.038.192-.048.279-.01.096-.029.231-.058.308 0 .067-.029.173-.038.25-.02.096-.039.193-.048.28-.01.028-.049.25-.049.288-.01.067-.028.144-.048.231-.019.096-.038.183-.038.28-.03.086-.039.201-.058.307-.02.125-.038.222-.058.337 0 .067-.038.23-.048.289-.01.057-.01.077-.019.144-.01.048-.029.106-.029.173a2.46 2.46 0 01-.048.231 1.31 1.31 0 00-.039.26 2.82 2.82 0 01-.048.212l-2.57.01c0-.183.116-.51.107-.684.048-.058.096-.423.086-.51.02-.029.01 0 .02-.048l.076-.51c.058-.067.106-.616.145-.741.019-.135.077-.337.067-.462.039-.058.039-.202.068-.27l.01-.096.028-.125c.077-.375-.067-.703-.462-.703-.318 0-.645.193-.741.462-.02.049-.02.077-.039.116-.019.096-.048.23-.048.327-.019.087-.029.145-.048.24-.02.097-.038.174-.038.28l-.039.144-.029.173c-.019.126-.048.241-.057.357-.03.019-.02.077-.03.125-.009.067-.019.086-.028.144-.01.087-.048.212-.048.298-.02.077-.03.145-.048.241-.02.096-.039.173-.039.28-.029.038-.067.317-.077.413-.01.067-.029.337-.01.404.02.058-.019.02.03.048-.049.135.124.472.201.607.049.077-.01.029.068.067-.01.048-.01.01 0 .048 0 .02.019.039.029.058l.462.626c.038.028-.03 0 .038.028 0 .058.231.328.28.366l.346.404c0 .01-.02.01.029.077l.433.54.24.298c.068.086.039.067.096.096.01.058.145.221.183.289.077.115.145.279.203.308-.02.057-.01.019.019.086.019.03.019.039.038.087l.125.356c.039.144.01.154.058.193-.048.115-.02.288-.02.413-.009.077-.018.097-.018.193-.02.029-.087.5-.087.577-.029.03 0-.01-.02.039 0 .01-.009.067-.009.067-.01.068-.02.106-.02.164a3.928 3.928 0 00-.086.49 2.401 2.401 0 00-.048.29c-.01.105-.048.202-.048.327-.02.019-.02.067-.029.106-.01.057-.01.086-.02.134-.018.097-.028.203-.047.29 0 .095-.048.23-.048.346-.02.028-.049.22-.049.279-.019.134-.057.27-.067.414-.02.048-.067.336-.067.413-.03.02-.03.096-.03.135-.009.067-.018.096-.028.164-.02.115-.048.24-.058.356a1.45 1.45 0 00-.048.211c-.02.068-.048.174-.058.25l-.163.463c-.087.212-.193.337-.231.433-.02.01-.135.173-.164.212-.038.048-.048.057-.087.105l-.105.116c-.077.106-.385.327-.53.385-.077.029-.144.048-.221.096-.087.01-.423.125-.731.135l-.857.02c-.164 0-.27.018-.414.018h-1.116c-.106 0-.126-.019-.222-.019-.048 0-.183-.029-.24-.038-.039-.01-.068-.01-.116-.02s-.067-.028-.125-.028c-.337-.077-.433-.193-.606-.318-.03-.02-.01-.01-.03-.02-.028-.047 0-.009-.038-.057-.01-.02-.019-.02-.029-.038l-.327-.616c-.01-.087-.038-.164-.048-.25-.01-.097.01-.184-.01-.27.03-.058.068-.5.077-.606.02-.154.097-.472.087-.597a.759.759 0 00.058-.327l.01-.03s.086-.317.067-.442c.038-.048.135-.616.125-.703l.038-.144c.01-.067.03-.106.01-.164l.02-.057c0-.01.009-.048.009-.058.01-.039.01-.077.02-.116.009-.076.038-.163.028-.24.048-.067.096-.385.087-.481.038-.058.115-.597.134-.712.058-.049 1.213-.02 1.28-.02h1.31l-.097.568-.038.222c-.02.105-.058.211-.058.327h-.039zm19.153-6.237l.077 1.213c.01.068.01.116.01.212 0 .096.019.106.019.202 0 .27.048.549.048.828l.029.394c.019.145.019.28.019.424 0 .115.029.279.038.394l.03.597c0 .096.018.116.018.202l.048.828c0 .096.02.106.02.202 0 .24.029.356.029.616l.038.414h-1.713l.318-1.636c.048-.28.115-.54.163-.818.02-.135.048-.26.077-.405.03-.144.058-.27.077-.413l.318-1.637c.057-.27.096-.548.163-.818l.116-.606c.01-.039.01-.048.02-.106l.028-.106.01.02zm9.278 2.869h-1.665c-.068 0-.039-.058-.039-.135l.193-3.051c0-.096.019-.106.019-.193l.058-1.02c.01-.067.01-.125.01-.202 0-.173.047-.606.047-.808 0-.097.02-.116.02-.202l.019-.414c.01-.116.029-.29.029-.414h1.78c.491 0 .347.366.347.75l-.222 3.446c0 .077.01.144 0 .221-.048.434-.048.992-.096 1.415-.029.26.077.597-.5.597v.01zm-11.646 8.97c.039-.183.077-.385.116-.568.038-.202.077-.385.115-.587l.116-.587c.038-.193.077-.395.125-.578h2.54c0 .164.049.423.049.587.01.289.057.587.067.876.01.193.048.395.048.597 0 .086-.01.26.068.26h6.073c.077 0 .048-.135.067-.328.02-.24.02-.5.048-.74.01-.058 0-.126 0-.184l.068-.933c.019-.173.01-.395.038-.568.029-.183.02-.375.038-.568.01-.058 0-.115.01-.183l.096-1.492c0-.077 0-.125.01-.202a6.67 6.67 0 00.048-.76h.443c.067 0 .057.087.077.144l.49 2.06.183.76c.193.751.376 1.492.54 2.252l.134.568c.02.068.01.164.077.164h3.821c0-.087-.067-.28-.096-.375l-.395-1.473c-.154-.626-.346-1.242-.5-1.867-.154-.616-.347-1.242-.491-1.858-.029-.125-.077-.25-.106-.375.472 0 .828-.125 1.088-.337a1.83 1.83 0 00.693-1.463l.211-3.368c.02-.106.01-.24.03-.337l.038-.684c0-.077.01-.096.019-.154.01-.067 0-.115.01-.182.029-.164.019-.337.029-.5l.048-.675c.01-.163.01-.356.029-.52l.057-1.02h1.145c0 .318-.048.626-.048.944l-.067.943c-.02.163-.01.317-.02.481l-.067.943c0 .174-.01.337-.028.481l-.231 3.793c-.02.134-.02.336-.03.471 0 .087-.019.116-.019.221l-.307 5.005c-.01.145-.039.318-.039.462l-.058.953a3.85 3.85 0 00-.029.481h3.773c.077 0 .048-.106.048-.192 0-.154.039-.308.039-.481l.077-1.194c.02-.125.029-.327.029-.472 0-.086.019-.125.019-.24 0-.116.02-.144.02-.24 0-.126.009-.347.028-.472.029-.164.01-.327.029-.491.01-.144.029-.308.029-.462l.038-.481c0-.106.01-.145.02-.222l.038-.74c.02-.28.058-.665.067-.944l.049-.963c.01-.144.038-.307.038-.461 0-.164.029-.328.039-.482.01-.336.038-.625.048-.962l.337-5.226c.01-.087.01-.154.01-.25 0-.087.018-.126.018-.241h2.503c-.068-.28-.116-.568-.183-.866l-.26-1.3c-.029-.154-.058-.288-.087-.442-.029-.135-.057-.289-.086-.424-.03-.154-.077-.298-.077-.452h-6.93c-.01.067-.029.115-.048.173-.058.164-.135.347-.173.51h-.039c-.019-.067-.086-.115-.135-.163a1.406 1.406 0 00-.356-.241c-.317-.192-.818-.28-1.241-.28H36.91c0 .26-.039.463-.039.704 0 .077-.01.105-.01.154-.009.067 0 .125-.009.182-.01.097-.02.25-.029.347-.01.058 0 .115 0 .173l-.057.886c-.03.211-.039.789-.058 1.058l-.029.52c0 .183-.039.337-.039.51l-.105 1.578c-.01.29-.058.588-.049.876 0 .29-.038.587-.048.876l-.134 2.079c0 .414-.068.837-.068 1.251h-.019c0-.346-.125-1-.154-1.386l-.029-.23c-.01-.097-.01-.145-.02-.232l-.326-2.762c-.087-.606-.126-1.241-.222-1.838l-.058-.462-.49-4.158c-.02-.173-.039-.115-.404-.115h-3.62l-.654 2.704c-.51 2.03-.981 4.071-1.492 6.111a18.83 18.83 0 00-.163.674l-1.069 4.399-.086.346-.991 4.071c-.01.03-.087.337-.087.337.01.048 0 .029.058.029h3.705v.038z"/></g><defs><clipPath id="ea"><path fill="#fff" transform="translate(.183)" d="M0 0h52.338v21.684H0z"/></clipPath></defs></svg><svg fill="none" viewBox="0 0 14 14" id="phone-icon" xmlns="http://www.w3.org/2000/svg"><g clip-path="url(#fa)"><path d="M7 0C3.14 0 0 3.14 0 7s3.14 7 7 7 7-3.14 7-7-3.14-7-7-7zm0 13.344A6.351 6.351 0 01.656 7 6.35 6.35 0 017 .656 6.351 6.351 0 0113.344 7 6.351 6.351 0 017 13.344zm2.699-5.698a.918.918 0 00-1.297 0l-.323.324a.253.253 0 01-.306.045 4.304 4.304 0 01-1.788-1.788.253.253 0 01.045-.306l.324-.323a.918.918 0 000-1.297l-1.19-1.19a.918.918 0 00-1.296 0c-.044.045-.105.102-.169.163-.192.18-.409.386-.52.55-.44.644-.447 1.526-.02 2.552.359.86 1.013 1.791 1.844 2.621.83.83 1.76 1.485 2.62 1.843.506.211.976.316 1.4.316.438 0 .827-.112 1.154-.335.163-.111.368-.329.55-.52.06-.064.117-.125.161-.17a.918.918 0 000-1.295l-1.19-1.19zm.725 2.022a9.398 9.398 0 00-.175.182c-.143.151-.338.358-.443.43-.57.39-1.364.19-1.93-.045-.783-.327-1.638-.93-2.41-1.702-.77-.77-1.375-1.626-1.7-2.41-.236-.565-.436-1.358-.045-1.93.071-.104.278-.3.429-.442.067-.064.131-.124.182-.175a.261.261 0 01.368 0l1.19 1.19a.26.26 0 010 .367l-.324.324a.912.912 0 00-.161 1.078 4.957 4.957 0 002.06 2.06.912.912 0 001.078-.161l.324-.324a.261.261 0 01.367 0l1.19 1.19a.261.261 0 010 .368z" fill="#fff"/></g><defs><clipPath id="fa"><path fill="#fff" d="M0 0h14v14H0z"/></clipPath></defs></svg><svg fill="none" viewBox="0 0 18 11" id="spoiler-arrow-icon" xmlns="http://www.w3.org/2000/svg"><path fill-rule="evenodd" clip-rule="evenodd" d="M9.53 9.884a.75.75 0 01-1.06 0L.823 2.237a.75.75 0 010-1.06l.354-.354a.75.75 0 011.06 0L9 7.586 15.763.823a.75.75 0 011.06 0l.354.354a.75.75 0 010 1.06L9.53 9.884z" fill="#000"/></svg><svg fill="none" viewBox="0 0 14 14" id="time-icon" xmlns="http://www.w3.org/2000/svg"><g clip-path="url(#ha)" fill="#fff"><path d="M7 7.273a.273.273 0 01-.193-.08L4.085 4.471a.274.274 0 11.386-.386l2.61 2.61 1.647-.441a.273.273 0 11.142.528l-1.8.482a.275.275 0 01-.07.01z"/><path d="M7 14a7 7 0 117-7 7.008 7.008 0 01-7 7zM7 .547A6.453 6.453 0 1013.453 7 6.46 6.46 0 007 .547z"/><path d="M7 2.177a.273.273 0 01-.273-.273v-.672a.273.273 0 01.546 0v.672A.273.273 0 017 2.177zm-2.548.683a.273.273 0 01-.237-.137l-.336-.582a.273.273 0 01.474-.273l.336.582a.273.273 0 01-.237.41zM2.586 4.725a.272.272 0 01-.137-.036l-.581-.336a.273.273 0 01.273-.474l.582.336a.273.273 0 01-.137.51zm-.682 2.548h-.672a.273.273 0 010-.546h.672a.273.273 0 010 .546zm.101 2.885a.273.273 0 01-.137-.51l.582-.337a.273.273 0 01.274.474l-.582.336a.271.271 0 01-.137.037zm2.111 2.112a.273.273 0 01-.237-.411l.336-.582a.273.273 0 11.474.273l-.336.582a.273.273 0 01-.237.137zM7 13.042a.273.273 0 01-.273-.274v-.672a.274.274 0 01.546 0v.672a.273.273 0 01-.273.274zm2.884-.772a.273.273 0 01-.237-.138l-.336-.582a.273.273 0 01.474-.273l.336.582a.273.273 0 01-.237.41zm2.111-2.112a.272.272 0 01-.136-.037l-.582-.336a.274.274 0 01.273-.474l.582.336a.273.273 0 01-.137.51zm.774-2.885h-.672a.274.274 0 010-.546h.672a.273.273 0 010 .546zm-1.356-2.548a.273.273 0 01-.137-.51l.582-.336a.274.274 0 11.274.474l-.582.336a.272.272 0 01-.137.036zM9.548 2.86a.273.273 0 01-.237-.41l.336-.582a.273.273 0 11.474.273l-.336.582a.273.273 0 01-.237.137z"/></g><defs><clipPath id="ha"><path fill="#fff" d="M0 0h14v14H0z"/></clipPath></defs></svg></svg>