<svg width="238" height="54" fill="none" xmlns="http://www.w3.org/2000/svg"><path d="M33.87 27.079c0 3.762-.732 6.935-2.195 9.52-1.463 2.575-3.438 4.527-5.924 5.858-2.486 1.32-5.258 1.98-8.316 1.98-3.08 0-5.864-.665-8.35-1.996-2.475-1.343-4.444-3.3-5.907-5.875C1.726 33.981 1 30.82 1 27.08c0-3.763.726-6.93 2.178-9.505 1.463-2.585 3.432-4.537 5.907-5.858 2.486-1.33 5.27-1.996 8.35-1.996 3.058 0 5.83.665 8.316 1.996 2.486 1.32 4.46 3.273 5.923 5.858 1.464 2.574 2.195 5.742 2.195 9.505Zm-9.44 0c0-2.024-.269-3.73-.808-5.116-.528-1.397-1.314-2.453-2.36-3.168-1.033-.726-2.31-1.089-3.827-1.089-1.518 0-2.8.363-3.845 1.09-1.034.714-1.82 1.77-2.36 3.167-.528 1.386-.792 3.091-.792 5.116 0 2.024.264 3.734.792 5.131.54 1.386 1.326 2.442 2.36 3.168 1.045.715 2.326 1.073 3.845 1.073 1.518 0 2.794-.358 3.828-1.073 1.045-.726 1.831-1.782 2.36-3.168.538-1.397.808-3.107.808-5.131ZM38.246 43.975v-5.082l15.972-21.319H38.312v-7.392H65.9v5.082L49.928 36.583h15.907v7.392h-27.59Z" fill="#539AC1"/><path d="M69.453 17.574v-7.392h29.37v7.392H88.66v26.401h-9.042v-26.4H69.453ZM102.276 43.975V10.182h24.355v7.392h-15.18v5.808h13.926v7.393h-13.926v5.808h15.114v7.392h-24.289ZM131.181 43.975V10.182h14.587c2.508 0 4.702.495 6.583 1.485 1.881.99 3.345 2.382 4.39 4.175 1.045 1.793 1.567 3.888 1.567 6.286 0 2.42-.539 4.516-1.617 6.287-1.067 1.771-2.569 3.135-4.505 4.092-1.925.957-4.432.973-7.006.973h-8.1V27h6.48c1.078 0 2.026-.372 2.785-.747.77-.384 1.359-.929 1.766-1.633.418-.704.627-1.535.627-2.492 0-.968-.209-1.793-.627-2.475-.407-.693-.996-1.22-1.766-1.584-.759-.374-1.677-.56-2.755-.56h-3.235v26.466h-9.174ZM161.674 10.182h11.419l7.854 19.14h.396l7.854-19.14h11.419v33.793h-8.977V24.438h-.264l-7.524 19.273h-5.412l-7.524-19.404h-.264v19.668h-8.977V10.182ZM237.701 27.079c0 3.762-.732 6.935-2.195 9.52-1.463 2.575-3.438 4.527-5.924 5.858-2.486 1.32-5.258 1.98-8.316 1.98-3.08 0-5.863-.665-8.349-1.996-2.475-1.343-4.444-3.3-5.907-5.875-1.453-2.585-2.179-5.747-2.179-9.487 0-3.763.726-6.93 2.179-9.505 1.463-2.585 3.432-4.537 5.907-5.858 2.486-1.33 5.269-1.996 8.349-1.996 3.058 0 5.83.665 8.316 1.996 2.486 1.32 4.461 3.273 5.924 5.858 1.463 2.574 2.195 5.742 2.195 9.505Zm-9.439 0c0-2.024-.269-3.73-.808-5.116-.528-1.397-1.315-2.453-2.36-3.168-1.034-.726-2.31-1.089-3.828-1.089-1.518 0-2.8.363-3.845 1.09-1.034.714-1.82 1.77-2.359 3.167-.528 1.386-.792 3.091-.792 5.116 0 2.024.264 3.734.792 5.131.539 1.386 1.325 2.442 2.359 3.168 1.045.715 2.327 1.073 3.845 1.073 1.518 0 2.794-.358 3.828-1.073 1.045-.726 1.832-1.782 2.36-3.168.539-1.397.808-3.107.808-5.131ZM0 0h238v2H0zM0 52h238v2H0z" fill="#2D2D2D"/><path fill="#2D2D2D" d="M137.08 27h4.32v6.48h-4.32z"/></svg>