<svg width="16" height="16" viewBox="0 0 16 16" fill="none" xmlns="http://www.w3.org/2000/svg">
<g clip-path="url(#clip0_97_92)">
<path d="M10.9805 4.48004H5.02016C4.53772 4.48055 4.07518 4.6724 3.73401 5.01351C3.39284 5.35462 3.20091 5.81712 3.20032 6.29956V9.70052C3.20091 10.183 3.39284 10.6455 3.73401 10.9866C4.07518 11.3277 4.53772 11.5195 5.02016 11.52H10.9805C11.4629 11.5195 11.9255 11.3277 12.2666 10.9866C12.6078 10.6455 12.7997 10.183 12.8003 9.70052V6.29956C12.7997 5.81712 12.6078 5.35462 12.2666 5.01351C11.9255 4.6724 11.4629 4.48055 10.9805 4.48004ZM10.9805 5.12004C11.1758 5.12132 11.3676 5.17172 11.5382 5.2666L9.032 7.1466C8.73369 7.36823 8.37194 7.4879 8.00032 7.4879C7.62869 7.4879 7.26694 7.36823 6.96864 7.1466L4.4624 5.2666C4.63307 5.17172 4.82488 5.12132 5.02016 5.12004H10.9805ZM12.1603 9.70052C12.16 10.0133 12.0356 10.3132 11.8144 10.5343C11.5932 10.7554 11.2933 10.8798 10.9805 10.88H5.02016C4.70738 10.8798 4.40748 10.7554 4.18628 10.5343C3.96508 10.3132 3.84066 10.0133 3.84032 9.70052V6.29956C3.84191 6.0955 3.89708 5.89543 4.00032 5.7194L6.58592 7.65828C6.99501 7.9627 7.49135 8.1271 8.00128 8.1271C8.5112 8.1271 9.00754 7.9627 9.41664 7.65828L12.0022 5.7194C12.1055 5.89543 12.1606 6.0955 12.1622 6.29956L12.1603 9.70052Z" fill="white"/>
<path d="M8.00032 0.320068C6.48136 0.320068 4.99651 0.770492 3.73354 1.61438C2.47057 2.45827 1.4862 3.65772 0.904921 5.06106C0.32364 6.4644 0.17155 8.00859 0.467885 9.49836C0.76422 10.9881 1.49567 12.3566 2.56974 13.4306C3.6438 14.5047 5.01225 15.2362 6.50202 15.5325C7.9918 15.8288 9.53599 15.6767 10.9393 15.0955C12.3427 14.5142 13.5421 13.5298 14.386 12.2668C15.2299 11.0039 15.6803 9.51903 15.6803 8.00007C15.6779 5.96393 14.868 4.01187 13.4283 2.57211C11.9885 1.13234 10.0365 0.32244 8.00032 0.320068ZM8.00032 15.0401C6.60794 15.0401 5.24682 14.6272 4.0891 13.8536C2.93138 13.08 2.02904 11.9806 1.4962 10.6942C0.963363 9.40777 0.823948 7.99226 1.09559 6.62663C1.36723 5.26101 2.03772 4.0066 3.02228 3.02204C4.00685 2.03747 5.26125 1.36698 6.62688 1.09534C7.99251 0.8237 9.40802 0.963116 10.6944 1.49596C11.9808 2.0288 13.0803 2.93113 13.8539 4.08885C14.6274 5.24658 15.0403 6.60769 15.0403 8.00007C15.0382 9.86654 14.2958 11.656 12.976 12.9758C11.6562 14.2956 9.86679 15.038 8.00032 15.0401Z" fill="white"/>
</g>
<defs>
<clipPath id="clip0_97_92">
<rect width="16" height="16" fill="white"/>
</clipPath>
</defs>
</svg>
