<svg width="53" height="22" viewBox="0 0 53 22" fill="none" xmlns="http://www.w3.org/2000/svg">
<g clip-path="url(#clip0_42_1734)">
<path fill-rule="evenodd" clip-rule="evenodd" d="M0.798561 18.1903C0.808207 18.1037 0.827414 18.0171 0.846706 17.94L0.904412 17.6224C0.914058 17.5743 0.914058 17.5166 0.933308 17.4588C0.942911 17.4107 0.952514 17.3722 0.962161 17.3337C0.971807 17.2471 0.991014 17.1605 1.00066 17.0643C1.01031 16.9776 1.03916 16.891 1.0488 16.8237C1.0488 16.7659 1.13545 16.2751 1.15466 16.2366C1.15466 16.1596 1.2702 15.4378 1.2894 15.3993C1.29905 15.2646 1.34711 15.1105 1.35676 14.9758C1.3664 14.8218 1.42415 14.6197 1.4434 14.4657C1.45305 14.331 1.49154 14.1577 1.51079 14.023C1.52044 13.946 1.53 13.8883 1.54929 13.8016C1.55894 13.7439 1.57819 13.6861 1.57819 13.6091C1.60704 13.5129 1.61669 13.33 1.64554 13.253C1.65519 13.1087 1.69369 12.9643 1.71294 12.8199C1.72254 12.7622 1.73214 12.7237 1.74179 12.6563C1.75144 12.6082 1.74179 12.5697 1.77069 12.5504C1.77069 12.4253 1.81879 12.3002 1.81879 12.1943C1.84768 12.0307 1.88618 11.8575 1.90543 11.6938C1.92468 11.5783 1.94393 11.4725 1.96318 11.357C1.97278 11.3185 1.98239 11.2319 1.99203 11.1934C2.00168 11.1357 2.01128 11.1164 2.01128 11.0587C2.02089 10.972 2.04014 10.8854 2.05939 10.7988C2.06903 10.7314 2.09789 10.6255 2.09789 10.5678C2.11713 10.4716 2.13643 10.3657 2.14603 10.2791C2.15568 10.0866 2.23267 9.89411 2.23267 9.69201C2.25188 9.64386 2.28082 9.48026 2.28082 9.43212C2.30003 9.33587 2.31932 9.23002 2.32897 9.14337L2.41561 8.61403C2.42521 8.57553 2.42521 8.56589 2.42521 8.52739C2.42521 8.50814 2.42521 8.50814 2.43486 8.48889L2.44451 8.46964C2.44451 8.32529 2.49261 8.15204 2.51186 8.01729C2.51186 7.95959 2.56 7.68045 2.57925 7.65155C2.57925 7.52645 2.61775 7.47835 2.61775 7.36281C2.6274 7.31466 2.6659 7.14146 2.6659 7.08371C2.6659 7.01636 2.6851 6.98751 2.69475 6.92011L2.77175 6.51587C2.77175 6.39077 2.791 6.33298 2.81029 6.21748C2.81989 6.17898 2.84879 5.99609 2.85839 5.94803C2.86804 5.86139 2.88729 5.80364 2.89689 5.70743C2.90654 5.64004 2.98354 5.10105 3.01243 5.0722C3.01243 4.98555 3.02203 4.96635 3.04128 4.88935C3.05093 4.82195 3.08943 4.48511 3.11833 4.45621C3.11833 4.35036 3.13753 4.27336 3.15682 4.16747C3.17603 4.07122 3.17603 4.00387 3.20493 3.92687L3.31082 3.32053C3.31082 3.24349 3.39747 2.72379 3.41667 2.69494C3.41667 2.60829 3.49367 2.14635 3.52252 2.0886C3.52252 2.0212 3.57067 1.72286 3.58992 1.68432C3.58992 1.59771 3.61877 1.44376 3.63806 1.35712C3.63806 1.29937 3.76316 0.587176 3.77277 0.548634C3.77277 0.41393 3.82091 0.250287 3.84016 0.11554C3.84016 0.0385418 3.84977 0.0577914 3.85937 0H24.7926L24.6963 0.635193C24.6771 0.731441 24.706 0.673692 24.6578 0.712191L24.6675 0.760337C24.6386 0.904687 24.5616 1.53992 24.5134 1.60727C24.5231 1.69392 24.4364 2.27136 24.3979 2.32911C24.4076 2.42532 24.3209 2.9066 24.2921 3.02205L24.2343 3.3493L24.0515 4.35027C24.0611 4.41763 23.9745 4.94697 23.9456 4.99511C23.9552 5.13946 23.8975 5.36085 23.8686 5.51485L23.782 6.0249C23.7723 6.04415 23.7723 6.04415 23.7723 6.06344L23.7627 6.0923C23.7723 6.16929 23.7531 6.35219 23.705 6.40989C23.7146 6.51574 23.6665 6.71789 23.6472 6.82374C23.628 6.93923 23.551 7.49743 23.5125 7.54553C23.5221 7.63218 23.4548 8.09412 23.4066 8.15191C23.4163 8.20002 23.3681 8.59461 23.32 8.65236C23.3392 8.77746 23.2238 9.2491 23.2045 9.4223C23.1756 9.52819 23.166 9.64369 23.1468 9.74954L23.0794 10.0864C23.089 10.1345 23.0313 10.6254 22.9735 10.7023C22.9928 10.7794 22.9639 10.9622 22.9158 11.02C22.9254 11.1066 22.8966 11.2028 22.8869 11.2991L22.7811 11.8284C22.7907 11.8958 22.7618 12.1172 22.7233 12.1653C22.733 12.2615 22.6848 12.5983 22.6367 12.6657C22.6463 12.7619 22.6175 12.8678 22.5982 12.9641C22.5886 13.0315 22.5694 13.2047 22.5309 13.2528C22.5405 13.3106 22.5309 13.3587 22.5212 13.4165C22.5212 13.4453 22.5116 13.4742 22.502 13.5031C22.4924 13.5608 22.502 13.532 22.4731 13.5705C22.4827 13.6379 22.4731 13.6763 22.4635 13.7341C22.4635 13.7533 22.4539 13.7918 22.4539 13.8111C22.4442 13.8688 22.4539 13.84 22.425 13.8785L22.3673 14.3308C22.3288 14.4463 22.4058 14.2346 22.3576 14.3597C22.3576 14.3597 22.348 14.3789 22.348 14.3693C22.348 14.3693 22.348 14.379 22.3384 14.379C22.348 14.4367 22.3384 14.4848 22.3287 14.5426L22.2902 14.6869C22.3094 14.7639 22.2421 15.1681 22.2036 15.2259C22.2132 15.3221 22.1459 15.7745 22.0977 15.8323C22.1074 15.9285 22.0592 16.2846 22.0111 16.3423C22.0207 16.4194 22.0014 16.5926 21.9629 16.6503C21.9726 16.737 21.9437 16.8428 21.9244 16.9391L21.857 17.3626C21.8474 17.4299 21.8089 17.6994 21.78 17.7571C21.7993 17.8534 21.7608 17.9785 21.7415 18.0844C21.7223 18.1806 21.7223 18.3154 21.6742 18.3828C21.6838 18.4694 21.6549 18.5657 21.6453 18.6523C21.6356 18.7293 21.6261 18.8448 21.5876 18.8928C21.6068 19.0084 21.5394 19.249 21.5202 19.3741C21.5009 19.4992 21.501 19.7302 21.4335 19.8168C21.4432 19.913 21.395 20.2691 21.3469 20.3269C21.3565 20.4135 21.2795 20.8947 21.241 20.9428C21.2507 21.0583 21.1833 21.3759 21.164 21.5106C21.1448 21.655 21.1736 21.6742 21.0293 21.6839H2.93522V21.6742C2.35773 21.6742 1.78029 21.6742 1.21245 21.6839H0.182617C0.192221 21.6068 0.21147 21.5202 0.230762 21.4336L0.307761 20.9332C0.317364 20.8947 0.336614 20.7214 0.355906 20.7022C0.355906 20.6445 0.423258 20.2017 0.44255 20.1728C0.44255 20.1055 0.461757 20.0092 0.471403 19.9515C0.683149 18.7195 0.519549 19.7879 0.769793 18.1613L0.798646 18.1902L0.798561 18.1903ZM5.18729 19.865H8.44038C9.45096 14.8891 10.7984 6.95853 11.6935 1.75171L8.46932 1.75167C8.50782 2.89695 5.34137 19.0083 5.19698 19.8746L5.18733 19.865H5.18729ZM13.3296 14.6003C13.3007 14.6677 13.2911 14.7929 13.2815 14.8794C13.2718 14.9661 13.2333 15.072 13.2333 15.1682C13.2333 15.2259 13.2044 15.3029 13.1948 15.3607C13.1852 15.4281 13.1659 15.5147 13.1563 15.5917C13.1371 15.6206 13.0889 15.9189 13.0889 15.9863C13.0601 16.0248 12.9831 16.5157 12.9831 16.6023L12.8772 17.1412C12.858 17.2856 12.8098 17.4011 12.8291 17.5839C12.8579 17.8727 13.1082 18.0555 13.4161 18.0074C13.6471 17.9689 13.6279 17.9497 13.7819 17.863C13.8396 17.7668 14.0706 17.5743 14.0514 17.4203C14.0899 17.3626 14.1572 16.9199 14.1669 16.8525C14.1957 16.7274 14.2727 16.3424 14.2631 16.2461L14.2727 16.2173C14.2727 16.2076 14.3497 15.9863 14.3305 15.8515L14.3593 15.7553C14.3689 15.7264 14.3689 15.6879 14.3786 15.6494C14.3882 15.582 14.4171 15.5051 14.3978 15.4377C14.4074 15.4185 14.4074 15.4377 14.417 15.3992L14.4362 15.3125C14.4458 15.2451 14.4458 15.2451 14.4458 15.1874C14.494 15.1297 14.5132 14.8698 14.5325 14.7736C14.5517 14.6485 14.6191 14.379 14.6095 14.2731L14.6769 13.9844C14.6961 13.8785 14.725 13.7726 14.7154 13.6764C14.7443 13.6379 14.7443 13.5802 14.7346 13.5224C14.8212 13.3877 14.6865 12.868 14.6384 12.7236C14.5902 12.5889 14.34 12.1846 14.263 12.1461C14.2438 12.098 14.0321 11.8092 13.9839 11.7804C13.9647 11.7226 13.9839 11.7707 13.9454 11.7226L13.6759 11.3858L13.6086 11.2799C13.5219 11.1741 13.1177 10.6447 13.0792 10.6351C13.06 10.5677 12.8963 10.3752 12.8386 10.3078C12.7905 10.2501 12.6269 10.0191 12.5883 9.99987C12.5691 9.96137 12.3381 9.63413 12.2996 9.61488C12.2515 9.49938 12.1649 9.39349 12.0975 9.27803C12.0686 9.22989 12.0301 9.16254 12.0013 9.09514C11.982 9.04704 11.9532 8.95079 11.9243 8.91229C11.8858 8.6909 11.8665 8.58505 11.8761 8.34445L11.9628 7.72851L12.1071 6.92003C12.136 6.78532 12.213 6.43883 12.1938 6.32333C12.2419 6.25594 12.2804 5.94799 12.2804 5.8517C12.3189 5.80355 12.3959 5.31271 12.3863 5.24536C12.4536 5.13946 12.4825 4.68712 12.5306 4.52352C12.5498 4.38882 12.6269 4.09043 12.6173 3.97497C12.6365 3.95576 12.6269 3.97497 12.6365 3.93647L12.675 3.77287C12.6942 3.70548 12.7231 3.62848 12.7135 3.56113C12.7424 3.52263 12.7327 3.54188 12.752 3.48409C12.7616 3.45523 12.7712 3.43598 12.7809 3.40709C12.8001 3.34938 12.8194 3.31088 12.8194 3.24349C12.8675 3.19534 12.9253 3.03174 12.9541 2.95474L13.1081 2.666C13.1563 2.63711 13.2044 2.56011 13.2429 2.512C13.291 2.44461 13.3295 2.41576 13.3872 2.36761C13.4354 2.32911 13.7048 2.14626 13.7145 2.12701C13.8011 2.09816 13.8973 2.03081 13.9936 1.99231C14.0898 1.95377 14.1765 1.91527 14.2823 1.88641C14.5037 1.81906 14.6961 1.79021 14.9367 1.77092C15.6201 1.75171 16.3227 1.77092 17.0157 1.77092C17.6797 1.77092 18.3053 1.82862 18.6614 2.21361C18.7384 2.29061 18.902 2.512 18.9502 2.64675C18.9887 2.76225 19.0368 2.84885 19.0657 2.97399C19.0946 3.1087 19.1042 3.23384 19.1042 3.39744C19.1042 3.45519 19.0946 3.56108 19.085 3.63804C19.0753 3.71504 19.0561 3.81129 19.0561 3.89793C19.0465 3.98457 19.0176 4.09043 19.008 4.17703C18.9983 4.27328 18.9791 4.40802 18.9502 4.48502C18.9502 4.55237 18.9214 4.65827 18.9117 4.73527C18.8925 4.83147 18.8732 4.92776 18.8636 5.01436C18.854 5.04322 18.8155 5.26461 18.8155 5.30311C18.8058 5.3705 18.7866 5.44746 18.7673 5.53406C18.7481 5.63031 18.7288 5.71695 18.7288 5.81316C18.6999 5.8998 18.6903 6.0153 18.6711 6.12115C18.6519 6.24625 18.6326 6.34254 18.6134 6.45799C18.6134 6.52539 18.5749 6.68895 18.5652 6.74674C18.5556 6.80449 18.5556 6.82374 18.546 6.89113C18.5364 6.93923 18.5171 6.99698 18.5171 7.06433C18.5075 7.13173 18.4883 7.21833 18.469 7.29533C18.4498 7.38197 18.4305 7.47818 18.4305 7.55518C18.4209 7.61293 18.4016 7.68992 18.3824 7.76692L15.8126 7.77657C15.8126 7.59372 15.9281 7.26648 15.9185 7.09319C15.9666 7.03548 16.0147 6.6697 16.0051 6.58314C16.0244 6.55424 16.0148 6.58314 16.0244 6.53499L16.1014 6.0249C16.1591 5.95751 16.2072 5.40896 16.2457 5.28381C16.265 5.14907 16.3227 4.94697 16.3131 4.82182C16.3516 4.76412 16.3516 4.61972 16.3805 4.55237L16.3901 4.45613L16.419 4.33102C16.496 3.95568 16.3516 3.62844 15.957 3.62844C15.6394 3.62844 15.3121 3.82093 15.2159 4.09043C15.1967 4.13857 15.1967 4.16742 15.1774 4.20592C15.1582 4.30217 15.1293 4.43692 15.1293 4.53317C15.1101 4.61981 15.1004 4.67752 15.0811 4.77376C15.0619 4.87001 15.0426 4.94701 15.0426 5.05286L15.0041 5.19721L14.9752 5.37046C14.956 5.49556 14.9271 5.61106 14.9175 5.7266C14.8887 5.7458 14.8983 5.80359 14.8887 5.8517C14.879 5.91905 14.8694 5.93834 14.8598 5.99605C14.8501 6.08269 14.8116 6.20779 14.8116 6.29444C14.7924 6.37144 14.7828 6.43879 14.7635 6.53504C14.7443 6.63124 14.725 6.70828 14.725 6.81413C14.6961 6.85263 14.6577 7.13173 14.648 7.22798C14.6384 7.29533 14.6192 7.56482 14.6384 7.63222C14.6576 7.68992 14.6192 7.65143 14.6673 7.68036C14.6191 7.81507 14.7924 8.15196 14.8694 8.2867C14.9175 8.3637 14.8597 8.31556 14.9367 8.3541C14.9271 8.4022 14.9271 8.3637 14.9367 8.4022C14.9367 8.42145 14.956 8.4407 14.9656 8.45995L15.4276 9.08554C15.4661 9.11439 15.3987 9.08554 15.4661 9.11439C15.4661 9.1721 15.697 9.44164 15.7452 9.48013L16.0917 9.88437C16.0917 9.89402 16.0724 9.89402 16.1205 9.96137L16.5537 10.5004L16.7943 10.7988C16.8616 10.8854 16.8328 10.8661 16.8905 10.895C16.9001 10.9527 17.0349 11.1163 17.0734 11.1837C17.1504 11.2992 17.2177 11.4628 17.2755 11.4917C17.2563 11.5494 17.2658 11.5109 17.2947 11.5783C17.3139 11.6072 17.3139 11.6168 17.3332 11.665L17.4583 12.0211C17.4968 12.1655 17.4679 12.1751 17.516 12.2136C17.4679 12.3291 17.4968 12.5024 17.4968 12.6274C17.4872 12.7045 17.4776 12.7237 17.4776 12.82C17.4584 12.8488 17.3909 13.3204 17.3909 13.3974C17.3621 13.4263 17.3909 13.3878 17.3717 13.4359C17.3717 13.4455 17.3621 13.5033 17.3621 13.5033C17.3525 13.5707 17.3429 13.6091 17.3429 13.6669C17.3237 13.7054 17.2562 14.1 17.2562 14.1577C17.237 14.2348 17.2177 14.3503 17.2081 14.4465C17.1985 14.5524 17.1599 14.6486 17.1599 14.7737C17.1407 14.793 17.1407 14.8411 17.1311 14.8796C17.1214 14.9373 17.1214 14.9663 17.1119 15.0143C17.0926 15.1106 17.083 15.2165 17.0637 15.3031C17.0637 15.3993 17.0156 15.5341 17.0156 15.6496C16.9964 15.6785 16.9674 15.8709 16.9674 15.9287C16.9482 16.0634 16.9097 16.1981 16.9001 16.3425C16.8808 16.3906 16.8327 16.6793 16.8327 16.7563C16.8038 16.7755 16.8038 16.8525 16.8038 16.8911C16.7942 16.9584 16.7846 16.9873 16.7749 17.0547C16.7557 17.1702 16.7268 17.2953 16.7172 17.4108C16.698 17.4589 16.6787 17.5648 16.6691 17.6225C16.6499 17.6899 16.6209 17.7958 16.6114 17.8728L16.4477 18.3348C16.3611 18.5465 16.2552 18.6716 16.2168 18.7679C16.1976 18.7775 16.082 18.9411 16.0532 18.9796C16.0147 19.0277 16.005 19.0373 15.9665 19.0855L15.8607 19.201C15.7837 19.3068 15.4757 19.5282 15.3313 19.5859C15.2543 19.6148 15.1869 19.6341 15.11 19.6822C15.0233 19.6918 14.6865 19.8073 14.3785 19.8169L13.5219 19.8361C13.3583 19.8361 13.2524 19.8554 13.1081 19.8554L11.9916 19.8555C11.8858 19.8555 11.8665 19.8362 11.7703 19.8362C11.7222 19.8362 11.5874 19.8074 11.5297 19.7977C11.4912 19.7881 11.4623 19.7881 11.4142 19.7785C11.366 19.7689 11.3468 19.7496 11.2891 19.7496C10.9522 19.6726 10.856 19.5571 10.6827 19.432C10.6538 19.4128 10.6731 19.4224 10.6538 19.4128C10.625 19.3647 10.6538 19.4032 10.6153 19.3551C10.6057 19.3359 10.5961 19.3359 10.5865 19.3166L10.2592 18.7006C10.2496 18.614 10.2207 18.537 10.2111 18.4504C10.2014 18.3542 10.2207 18.2675 10.2014 18.1809C10.2303 18.1232 10.2688 17.6804 10.2785 17.5746C10.2977 17.4206 10.3747 17.103 10.3651 16.9779C10.4036 16.9201 10.4325 16.718 10.4228 16.6506L10.4325 16.6217C10.4325 16.6217 10.5191 16.3041 10.4998 16.179C10.5383 16.1309 10.6346 15.5631 10.6249 15.4764L10.6634 15.3321C10.6731 15.2647 10.6923 15.2262 10.6731 15.1685L10.6923 15.1107C10.6923 15.1011 10.7019 15.0626 10.7019 15.053C10.7116 15.0145 10.7116 14.976 10.7211 14.9375C10.7308 14.8605 10.7597 14.7739 10.75 14.6969C10.7982 14.6295 10.8462 14.3119 10.8367 14.2157C10.8752 14.158 10.9522 13.619 10.9714 13.5035C11.0291 13.4554 12.1841 13.4843 12.2515 13.4843H13.5604L13.4642 14.0521L13.4257 14.2735C13.4065 14.3793 13.368 14.4852 13.368 14.6007H13.3294L13.3296 14.6003Z" fill="white"/>
<path fill-rule="evenodd" clip-rule="evenodd" d="M32.4827 8.36346L32.5597 9.57618C32.5693 9.64358 32.5693 9.69168 32.5693 9.78793C32.5693 9.88418 32.5886 9.89378 32.5886 9.99003C32.5886 10.2595 32.6367 10.5386 32.6367 10.8177L32.6656 11.2124C32.6848 11.3567 32.6848 11.4915 32.6848 11.6358C32.6848 11.7513 32.7137 11.9149 32.7233 12.0304L32.7522 12.6272C32.7522 12.7234 32.7714 12.7427 32.7714 12.8293L32.8195 13.657C32.8195 13.7532 32.8387 13.7628 32.8387 13.8591C32.8387 14.0997 32.8676 14.2152 32.8676 14.475L32.9061 14.8889L31.193 14.8888L31.5106 13.2527C31.5587 12.9736 31.6261 12.7137 31.6742 12.4346C31.6935 12.2998 31.7223 12.1747 31.7512 12.0303C31.7801 11.886 31.809 11.7609 31.8282 11.6165L32.1458 9.98034C32.2035 9.71089 32.2421 9.43179 32.3094 9.16225L32.425 8.55587C32.4346 8.51737 32.4346 8.50777 32.4442 8.45002L32.473 8.34417L32.4827 8.36338L32.4827 8.36346ZM41.7607 11.2316H40.0957C40.0283 11.2316 40.0572 11.1738 40.0572 11.0968L40.2497 8.04587C40.2497 7.94962 40.2689 7.94001 40.2689 7.85337L40.3266 6.83319C40.3362 6.76579 40.3362 6.70808 40.3362 6.63104C40.3362 6.45784 40.3844 6.0247 40.3844 5.8226C40.3844 5.7264 40.4036 5.70711 40.4036 5.62051L40.4228 5.20666C40.4324 5.09116 40.4517 4.91792 40.4517 4.79282H42.2322C42.7231 4.79282 42.5787 5.15856 42.5787 5.54355L42.3573 8.98909C42.3573 9.06609 42.3669 9.13344 42.3573 9.21049C42.3092 9.64358 42.3092 10.2018 42.2611 10.6253C42.2322 10.8852 42.3381 11.222 41.7606 11.222V11.2316L41.7607 11.2316ZM30.1151 20.2016C30.1536 20.0187 30.1921 19.8166 30.2306 19.6337C30.2691 19.4316 30.3076 19.2487 30.3461 19.0466C30.3846 18.8541 30.4231 18.6616 30.4616 18.4596C30.5001 18.267 30.5386 18.0649 30.5867 17.8821L33.1276 17.8821C33.1276 18.0457 33.1757 18.3055 33.1757 18.4691C33.1853 18.7579 33.2334 19.0562 33.2431 19.345C33.2527 19.5375 33.2912 19.7396 33.2912 19.9417C33.2912 20.0283 33.2816 20.2016 33.3586 20.2016H39.4316C39.5086 20.2016 39.4798 20.0668 39.499 19.8743C39.5182 19.6337 39.5182 19.3738 39.5471 19.1332C39.5568 19.0755 39.5471 19.0081 39.5471 18.9504L39.6145 18.0168C39.6337 17.8436 39.6241 17.6222 39.653 17.449C39.6819 17.2661 39.6722 17.0736 39.6915 16.8811C39.7011 16.8234 39.6915 16.7656 39.7011 16.6982L39.7973 15.2064C39.7973 15.1294 39.7974 15.0813 39.807 15.0043C39.8359 14.7926 39.8551 14.4558 39.8551 14.244H40.2978C40.3652 14.244 40.3555 14.3307 40.3748 14.3884L40.8657 16.448C40.9234 16.6886 40.9908 16.9677 41.0485 17.2083C41.2411 17.959 41.4239 18.7001 41.5875 19.4604L41.7223 20.0283C41.7415 20.0957 41.7319 20.1919 41.7993 20.1919H45.6202C45.6202 20.1052 45.5528 19.9128 45.5239 19.8165L45.1294 18.344C44.9753 17.7184 44.7829 17.1024 44.6289 16.4769C44.4749 15.8609 44.2824 15.2353 44.138 14.6194C44.1091 14.4943 44.061 14.3691 44.0322 14.244C44.5038 14.244 44.8599 14.1189 45.1197 13.9072C45.5528 13.5607 45.8223 13.0313 45.8127 12.4442L46.0244 9.0757C46.0436 8.96984 46.034 8.8351 46.0533 8.73885L46.0918 8.05547C46.0918 7.97847 46.1014 7.95926 46.111 7.90147C46.1206 7.83412 46.111 7.78597 46.1206 7.71862C46.1495 7.55502 46.1399 7.38178 46.1495 7.21813L46.1976 6.54444C46.2073 6.3808 46.2073 6.1883 46.2265 6.0247L46.2842 5.00452H47.4295C47.4295 5.32212 47.3814 5.63011 47.3814 5.94771L47.314 6.89089C47.2948 7.05449 47.3044 7.20849 47.2948 7.37209L47.2274 8.31527C47.2274 8.48852 47.2178 8.65212 47.1985 8.79647L46.9676 12.5885C46.9483 12.7233 46.9483 12.9254 46.9387 13.0601C46.9387 13.1468 46.9195 13.1756 46.9195 13.2815L46.6115 18.2863C46.6019 18.4306 46.573 18.6038 46.573 18.7482L46.5153 19.7011C46.496 19.8454 46.4864 20.0187 46.4864 20.1823H50.2592C50.3362 20.1823 50.3074 20.0764 50.3074 19.9898C50.3074 19.8358 50.3459 19.6818 50.3459 19.5086L50.4229 18.3151C50.4421 18.19 50.4518 17.9879 50.4518 17.8435C50.4518 17.7569 50.471 17.7184 50.471 17.6029C50.471 17.4874 50.4902 17.4586 50.4902 17.3623C50.4902 17.2372 50.4998 17.0159 50.5191 16.8907C50.5479 16.7271 50.5287 16.5635 50.5479 16.3998C50.5576 16.2555 50.5768 16.0919 50.5768 15.9379L50.6153 15.4567C50.6153 15.3508 50.625 15.3123 50.6345 15.2353L50.673 14.4942C50.6923 14.2151 50.7308 13.8301 50.7404 13.551L50.7886 12.5885C50.7982 12.4442 50.8271 12.2806 50.8271 12.1266C50.8271 11.963 50.8559 11.7994 50.8656 11.6454C50.8752 11.3085 50.9041 11.0198 50.9137 10.6829L51.2505 5.45682C51.2602 5.37018 51.2602 5.30282 51.2602 5.20658C51.2602 5.11993 51.2794 5.08147 51.2794 4.96598H53.7818C53.7144 4.68688 53.6662 4.39814 53.5989 4.09979L53.339 2.80046C53.3101 2.64647 53.2813 2.51172 53.2524 2.35777C53.2235 2.22302 53.1946 2.06902 53.1657 1.93428C53.1368 1.78028 53.0887 1.63589 53.0887 1.48193H46.1591C46.1495 1.54933 46.1302 1.59747 46.111 1.65518C46.0532 1.81878 45.9762 2.00167 45.9377 2.16527H45.8992C45.88 2.09788 45.8126 2.04973 45.7645 2.00163C45.6586 1.89578 45.5335 1.82843 45.4084 1.76103C45.0908 1.56854 44.5903 1.48193 44.1668 1.48193H36.9099C36.9099 1.74182 36.8714 1.94392 36.8714 2.18452C36.8714 2.26156 36.8618 2.29042 36.8618 2.33852C36.8521 2.40591 36.8618 2.46362 36.8521 2.52141C36.8425 2.61762 36.8329 2.77165 36.8233 2.8679C36.8136 2.92561 36.8233 2.9834 36.8233 3.04111L36.7655 3.92659C36.7367 4.13833 36.727 4.71582 36.7078 4.98527L36.679 5.50501C36.679 5.68786 36.6404 5.84185 36.6404 6.01506L36.5346 7.59348C36.525 7.88222 36.4769 8.18057 36.4864 8.46931C36.4864 8.75806 36.4479 9.0564 36.4383 9.34515L36.3036 11.424C36.3036 11.8379 36.2362 12.2613 36.2362 12.6752H36.217C36.217 12.3287 36.0919 11.6742 36.063 11.2893L36.0341 11.0583C36.0245 10.9621 36.0245 10.9139 36.0149 10.8273L35.6876 8.06511C35.601 7.45873 35.5625 6.82354 35.4663 6.2268L35.4085 5.76486L34.9177 1.60708C34.8985 1.43383 34.8792 1.49158 34.5135 1.49158L30.8946 1.49154L30.2402 4.19599C29.7301 6.22676 29.2585 8.26713 28.7484 10.3075C28.6906 10.5289 28.6329 10.7599 28.5848 10.9813L27.5164 15.3797L27.4298 15.7261L26.4385 19.7972C26.4288 19.8261 26.3518 20.1341 26.3518 20.1341C26.3615 20.1822 26.3518 20.163 26.4095 20.163H30.115V20.2015L30.1151 20.2016Z" fill="white"/>
</g>
<defs>
<clipPath id="clip0_42_1734">
<rect width="52.3379" height="21.6839" fill="white" transform="translate(0.182861)"/>
</clipPath>
</defs>
</svg>
