<svg width="14" height="14" viewBox="0 0 14 14" fill="none" xmlns="http://www.w3.org/2000/svg">
<g clip-path="url(#clip0_97_98)">
<path d="M7 0C3.14018 0 0 3.14018 0 7C0 10.8598 3.14018 14 7 14C10.8598 14 14 10.8598 14 7C14 3.14018 10.8598 0 7 0ZM7 13.3438C3.50205 13.3438 0.65625 10.4979 0.65625 7C0.65625 3.50205 3.50205 0.65625 7 0.65625C10.4979 0.65625 13.3438 3.50205 13.3438 7C13.3438 10.4979 10.4979 13.3438 7 13.3438ZM9.69853 7.64605C9.52652 7.47444 9.29346 7.37806 9.05048 7.37806C8.8075 7.37806 8.57444 7.47444 8.40243 7.64605L8.07898 7.96958C8.04027 8.01008 7.9892 8.03655 7.93379 8.04485C7.87839 8.05314 7.8218 8.04277 7.77293 8.01538C7.01119 7.61184 6.38819 6.98884 5.98464 6.2271C5.95726 6.17824 5.94691 6.12165 5.9552 6.06626C5.9635 6.01086 5.98998 5.9598 6.03047 5.9211L6.35403 5.59757C6.52564 5.42555 6.62202 5.1925 6.62202 4.94952C6.62202 4.70654 6.52564 4.47348 6.35403 4.30147L5.16417 3.11172C4.99215 2.94013 4.75909 2.84377 4.51612 2.84377C4.27315 2.84377 4.0401 2.94013 3.86807 3.11172C3.82353 3.15629 3.76316 3.21333 3.69923 3.27376C3.50749 3.45494 3.29022 3.66026 3.17871 3.82337C2.73848 4.46772 2.73191 5.35046 3.15941 6.37618C3.51791 7.2363 4.17246 8.1672 5.00257 8.99724C5.83267 9.82729 6.7635 10.482 7.62366 10.8404C8.12889 11.051 8.59936 11.1562 9.02382 11.1562C9.4611 11.1562 9.8496 11.0445 10.1765 10.8212C10.3396 10.7097 10.5449 10.4925 10.7261 10.3009C10.7866 10.2369 10.8437 10.1764 10.8883 10.1318C11.0599 9.95981 11.1563 9.72675 11.1563 9.48377C11.1563 9.24079 11.0599 9.00773 10.8883 8.83572L9.69853 7.64605ZM10.4243 9.66779C10.3731 9.71895 10.3129 9.78264 10.2491 9.85018C10.1065 10.0011 9.91126 10.2077 9.8064 10.2793C9.23535 10.6694 8.44156 10.4704 7.87618 10.2347C7.0933 9.90845 6.23757 9.30418 5.46664 8.53325C4.69571 7.76232 4.0915 6.90662 3.76521 6.12377C3.52959 5.55844 3.33044 4.76465 3.72066 4.19357C3.7923 4.08868 3.99905 3.89331 4.14996 3.75061C4.21736 3.68692 4.28102 3.62677 4.33215 3.57561C4.38109 3.52709 4.44721 3.49987 4.51612 3.49987C4.58503 3.49987 4.65115 3.52709 4.70009 3.57561L5.88984 4.7655C5.93857 4.81432 5.96593 4.88049 5.96593 4.94946C5.96593 5.01844 5.93857 5.08461 5.88984 5.13343L5.56631 5.45696C5.4269 5.59529 5.33588 5.77493 5.30681 5.96916C5.27774 6.16338 5.31217 6.36181 5.40498 6.53488C5.86984 7.41241 6.58754 8.1301 7.46506 8.59496C7.63814 8.68776 7.83656 8.72219 8.03079 8.69312C8.22501 8.66405 8.40465 8.57304 8.54298 8.43363L8.86654 8.11016C8.91548 8.06164 8.9816 8.03442 9.05051 8.03442C9.11942 8.03442 9.18554 8.06164 9.23448 8.11016L10.4243 9.29991C10.4728 9.34885 10.5 9.41497 10.5 9.48388C10.5 9.55279 10.4728 9.61891 10.4243 9.66785V9.66779Z" fill="white"/>
</g>
<defs>
<clipPath id="clip0_97_98">
<rect width="14" height="14" fill="white"/>
</clipPath>
</defs>
</svg>
