<svg width="14" height="14" viewBox="0 0 14 14" fill="none" xmlns="http://www.w3.org/2000/svg">
<g clip-path="url(#clip0_97_74)">
<path d="M6.99988 7.27344C6.92737 7.27342 6.85783 7.24461 6.80656 7.19332L4.0846 4.47142C4.05903 4.44607 4.03871 4.41591 4.02482 4.38269C4.01093 4.34947 4.00374 4.31383 4.00366 4.27782C4.00358 4.24181 4.01062 4.20614 4.02436 4.17286C4.03811 4.13958 4.05829 4.10933 4.08375 4.08387C4.10921 4.05841 4.13945 4.03823 4.17274 4.02448C4.20602 4.01074 4.24169 4.00371 4.2777 4.00378C4.31371 4.00386 4.34935 4.01105 4.38257 4.02494C4.41579 4.03883 4.44594 4.05915 4.47129 4.08472L7.08158 6.69501L8.72822 6.25374C8.76291 6.24444 8.7991 6.24207 8.8347 6.24676C8.87031 6.25145 8.90464 6.26311 8.93575 6.28107C8.96685 6.29903 8.99411 6.32294 9.01597 6.35143C9.03783 6.37993 9.05386 6.41245 9.06316 6.44714C9.07245 6.48183 9.07482 6.51801 9.07013 6.55362C9.06544 6.58922 9.05378 6.62356 9.03582 6.65466C9.01786 6.68576 8.99395 6.71302 8.96546 6.73488C8.93697 6.75674 8.90445 6.77278 8.86975 6.78207L7.07054 7.26414C7.04749 7.2703 7.02374 7.27342 6.99988 7.27344V7.27344Z" fill="white"/>
<path d="M7 13.9999C5.61553 13.9999 4.26216 13.5894 3.11101 12.8202C1.95987 12.0511 1.06266 10.9578 0.532846 9.67873C0.00303297 8.39964 -0.13559 6.99218 0.134506 5.63431C0.404603 4.27644 1.07129 3.02916 2.05026 2.05019C3.02922 1.07123 4.2765 0.404542 5.63437 0.134445C6.99224 -0.135651 8.3997 0.00297193 9.67879 0.532785C10.9579 1.0626 12.0511 1.95981 12.8203 3.11095C13.5895 4.26209 14 5.61547 14 6.99994C13.9979 8.85581 13.2597 10.6351 11.9474 11.9474C10.6351 13.2597 8.85587 13.9978 7 13.9999V13.9999ZM7 0.546817C5.7237 0.546817 4.47605 0.925286 3.41484 1.63436C2.35363 2.34344 1.52651 3.35128 1.03809 4.53044C0.549671 5.70959 0.421878 7.0071 0.670873 8.25888C0.919868 9.51067 1.53447 10.6605 2.43695 11.563C3.33944 12.4655 4.48928 13.0801 5.74106 13.3291C6.99284 13.5781 8.29035 13.4503 9.46951 12.9619C10.6487 12.4734 11.6565 11.6463 12.3656 10.5851C13.0747 9.5239 13.4531 8.27625 13.4531 6.99994C13.4512 5.28906 12.7707 3.64881 11.5609 2.43904C10.3511 1.22926 8.71088 0.548757 7 0.546817V0.546817Z" fill="white"/>
<path d="M7 2.17707C6.92748 2.17707 6.85793 2.14826 6.80665 2.09698C6.75537 2.0457 6.72656 1.97615 6.72656 1.90363V1.23163C6.72656 1.15911 6.75537 1.08956 6.80665 1.03828C6.85793 0.986999 6.92748 0.958191 7 0.958191C7.07252 0.958191 7.14207 0.986999 7.19335 1.03828C7.24463 1.08956 7.27344 1.15911 7.27344 1.23163V1.90363C7.27344 1.97615 7.24463 2.0457 7.19335 2.09698C7.14207 2.14826 7.07252 2.17707 7 2.17707Z" fill="white"/>
<path d="M4.4525 2.86004C4.40446 2.86009 4.35725 2.84747 4.31563 2.82347C4.27401 2.79947 4.23945 2.76493 4.21543 2.72332L3.87948 2.14101C3.8438 2.07824 3.83438 2.0039 3.8533 1.93422C3.87222 1.86453 3.91793 1.80516 3.98047 1.76906C4.043 1.73295 4.11727 1.72305 4.18708 1.74151C4.25689 1.75996 4.31656 1.80528 4.35308 1.86757L4.68902 2.44955C4.71301 2.4911 4.72565 2.53823 4.72566 2.5862C4.72567 2.63418 4.71306 2.68131 4.68909 2.72287C4.66513 2.76443 4.63065 2.79895 4.58912 2.82297C4.54759 2.84699 4.50047 2.85966 4.4525 2.85971V2.86004Z" fill="white"/>
<path d="M2.586 4.72529C2.53799 4.72535 2.49082 4.71268 2.44928 4.6886L1.86757 4.35265C1.80528 4.31613 1.75996 4.25646 1.74151 4.18665C1.72305 4.11684 1.73295 4.04257 1.76906 3.98004C1.80516 3.91751 1.86453 3.87179 1.93422 3.85288C2.0039 3.83396 2.07824 3.84337 2.14101 3.87906L2.72299 4.215C2.77514 4.24509 2.81591 4.29155 2.83896 4.34717C2.86201 4.40279 2.86606 4.46446 2.85048 4.52262C2.8349 4.58078 2.80056 4.63216 2.75278 4.66881C2.70501 4.70546 2.64648 4.72531 2.58627 4.72529H2.586Z" fill="white"/>
<path d="M1.90369 7.27344H1.23169C1.15917 7.27344 1.08962 7.24463 1.03834 7.19335C0.98706 7.14207 0.958252 7.07252 0.958252 7C0.958252 6.92748 0.98706 6.85793 1.03834 6.80665C1.08962 6.75537 1.15917 6.72656 1.23169 6.72656H1.90369C1.97621 6.72656 2.04576 6.75537 2.09704 6.80665C2.14832 6.85793 2.17713 6.92748 2.17713 7C2.17713 7.07252 2.14832 7.14207 2.09704 7.19335C2.04576 7.24463 1.97621 7.27344 1.90369 7.27344V7.27344Z" fill="white"/>
<path d="M2.00497 10.1576C1.94476 10.1576 1.88623 10.1378 1.83845 10.1011C1.79068 10.0645 1.75634 10.0131 1.74076 9.95493C1.72518 9.89677 1.72923 9.8351 1.75228 9.77948C1.77533 9.72386 1.81609 9.6774 1.86825 9.64731L2.45023 9.31137C2.513 9.27568 2.58734 9.26627 2.65702 9.28519C2.72671 9.30411 2.78608 9.34982 2.82218 9.41235C2.85829 9.47488 2.86819 9.54916 2.84973 9.61896C2.83128 9.68877 2.78596 9.74844 2.72367 9.78496L2.14168 10.1209C2.10015 10.145 2.05298 10.1577 2.00497 10.1576V10.1576Z" fill="white"/>
<path d="M4.11593 12.2691C4.06796 12.2691 4.02084 12.2564 3.97931 12.2324C3.93778 12.2083 3.9033 12.1738 3.87934 12.1323C3.85537 12.0907 3.84276 12.0436 3.84277 11.9956C3.84279 11.9476 3.85542 11.9005 3.87941 11.8589L4.21535 11.277C4.23318 11.2456 4.25702 11.2181 4.28552 11.196C4.31402 11.1739 4.34661 11.1577 4.38141 11.1482C4.41621 11.1388 4.45254 11.1363 4.4883 11.141C4.52406 11.1456 4.55855 11.1573 4.58978 11.1753C4.62101 11.1933 4.64836 11.2174 4.67027 11.246C4.69217 11.2747 4.70819 11.3074 4.71741 11.3422C4.72663 11.3771 4.72886 11.4134 4.72397 11.4492C4.71909 11.4849 4.70718 11.5193 4.68895 11.5504L4.353 12.1324C4.32898 12.174 4.29442 12.2085 4.2528 12.2325C4.21118 12.2565 4.16397 12.2691 4.11593 12.2691V12.2691Z" fill="white"/>
<path d="M7 13.0418C6.92748 13.0418 6.85793 13.013 6.80665 12.9617C6.75537 12.9104 6.72656 12.8409 6.72656 12.7684V12.0964C6.72656 12.0239 6.75537 11.9543 6.80665 11.903C6.85793 11.8517 6.92748 11.8229 7 11.8229C7.07252 11.8229 7.14207 11.8517 7.19335 11.903C7.24463 11.9543 7.27344 12.0239 7.27344 12.0964V12.7684C7.27344 12.8409 7.24463 12.9104 7.19335 12.9617C7.14207 13.013 7.07252 13.0418 7 13.0418V13.0418Z" fill="white"/>
<path d="M9.88414 12.2691C9.8361 12.2692 9.78889 12.2566 9.74727 12.2326C9.70565 12.2086 9.67109 12.174 9.64707 12.1324L9.31113 11.5504C9.27544 11.4877 9.26603 11.4133 9.28494 11.3436C9.30386 11.274 9.34958 11.2146 9.41211 11.1785C9.47464 11.1424 9.54891 11.1325 9.61872 11.1509C9.68853 11.1694 9.7482 11.2147 9.78472 11.277L10.1207 11.859C10.1447 11.9005 10.1573 11.9477 10.1573 11.9956C10.1573 12.0436 10.1447 12.0907 10.1207 12.1323C10.0968 12.1739 10.0623 12.2084 10.0208 12.2324C9.97923 12.2564 9.93212 12.2691 9.88414 12.2691V12.2691Z" fill="white"/>
<path d="M11.9954 10.1577C11.9475 10.1577 11.9004 10.145 11.859 10.121L11.277 9.78502C11.2147 9.74851 11.1694 9.68883 11.1509 9.61902C11.1325 9.54922 11.1424 9.47494 11.1785 9.41241C11.2146 9.34988 11.274 9.30417 11.3436 9.28525C11.4133 9.26633 11.4877 9.27574 11.5504 9.31143L12.1324 9.64737C12.1846 9.67747 12.2254 9.72395 12.2484 9.7796C12.2715 9.83525 12.2755 9.89695 12.2599 9.95512C12.2442 10.0133 12.2099 10.0647 12.162 10.1013C12.1142 10.1379 12.0557 10.1577 11.9954 10.1577Z" fill="white"/>
<path d="M12.7687 7.27344H12.0967C12.0242 7.27344 11.9546 7.24463 11.9033 7.19335C11.8521 7.14207 11.8232 7.07252 11.8232 7C11.8232 6.92748 11.8521 6.85793 11.9033 6.80665C11.9546 6.75537 12.0242 6.72656 12.0967 6.72656H12.7687C12.8412 6.72656 12.9107 6.75537 12.962 6.80665C13.0133 6.85793 13.0421 6.92748 13.0421 7C13.0421 7.07252 13.0133 7.14207 12.962 7.19335C12.9107 7.24463 12.8412 7.27344 12.7687 7.27344V7.27344Z" fill="white"/>
<path d="M11.4134 4.72533C11.3532 4.72541 11.2946 4.7056 11.2468 4.66898C11.199 4.63235 11.1646 4.58097 11.149 4.52279C11.1334 4.46462 11.1374 4.40292 11.1605 4.34727C11.1835 4.29162 11.2243 4.24514 11.2764 4.21505L11.8584 3.8791C11.8895 3.86086 11.924 3.84896 11.9597 3.84407C11.9954 3.83919 12.0318 3.84142 12.0666 3.85064C12.1015 3.85985 12.1342 3.87587 12.1628 3.89778C12.1915 3.91968 12.2155 3.94704 12.2335 3.97827C12.2516 4.0095 12.2632 4.04399 12.2679 4.07975C12.2725 4.11551 12.2701 4.15183 12.2606 4.18663C12.2512 4.22143 12.2349 4.25402 12.2128 4.28252C12.1907 4.31102 12.1632 4.33487 12.1319 4.35269L11.5499 4.68864C11.5084 4.71268 11.4614 4.72534 11.4134 4.72533V4.72533Z" fill="white"/>
<path d="M9.54757 2.86017C9.4996 2.86012 9.45248 2.84745 9.41095 2.82343C9.36942 2.79941 9.33494 2.76489 9.31098 2.72333C9.28701 2.68177 9.2744 2.63463 9.27441 2.58666C9.27443 2.53868 9.28706 2.49156 9.31105 2.45001L9.64699 1.86803C9.66482 1.83668 9.68866 1.80916 9.71716 1.78707C9.74566 1.76498 9.77825 1.74874 9.81305 1.73929C9.84785 1.72984 9.88418 1.72737 9.91994 1.73202C9.9557 1.73667 9.99019 1.74834 10.0214 1.76637C10.0526 1.7844 10.08 1.80843 10.1019 1.83708C10.1238 1.86572 10.1398 1.89842 10.1491 1.93328C10.1583 1.96815 10.1605 2.00449 10.1556 2.04022C10.1507 2.07594 10.1388 2.11035 10.1206 2.14146L9.78464 2.72345C9.76062 2.76505 9.72606 2.7996 9.68444 2.8236C9.64282 2.8476 9.59561 2.86021 9.54757 2.86017V2.86017Z" fill="white"/>
</g>
<defs>
<clipPath id="clip0_97_74">
<rect width="14" height="14" fill="white"/>
</clipPath>
</defs>
</svg>
