<svg width="7" height="16" viewBox="0 0 7 16" fill="none" xmlns="http://www.w3.org/2000/svg">
<path fill-rule="evenodd" clip-rule="evenodd" d="M-2.31923 0.180771C-2.26207 0.123469 -2.19417 0.0780066 -2.11942 0.0469869C-2.04466 0.0159672 -1.96452 0 -1.88359 0C-1.80265 0 -1.72251 0.0159672 -1.64776 0.0469869C-1.573 0.0780066 -1.5051 0.123469 -1.44795 0.180771L5.9358 7.56452C5.9931 7.62168 6.03857 7.68958 6.06959 7.76433C6.10061 7.83909 6.11657 7.91923 6.11657 8.00016C6.11657 8.0811 6.10061 8.16124 6.06959 8.23599C6.03857 8.31074 5.9931 8.37865 5.9358 8.4358L-1.44795 15.8196C-1.56349 15.9351 -1.72019 16 -1.88359 16C-2.04699 16 -2.20369 15.9351 -2.31923 15.8196C-2.43477 15.704 -2.49968 15.5473 -2.49968 15.3839C-2.49968 15.2205 -2.43477 15.0638 -2.31923 14.9483L4.63011 8.00016L-2.31923 1.05205C-2.37653 0.994897 -2.42199 0.926996 -2.45301 0.852242C-2.48403 0.777487 -2.5 0.697347 -2.5 0.616412C-2.5 0.535478 -2.48403 0.455338 -2.45301 0.380583C-2.42199 0.305829 -2.37653 0.237928 -2.31923 0.180771Z" fill="#23A6F0"/>
</svg>
